<svg width="61" height="60" viewBox="0 0 61 60" fill="none" xmlns="http://www.w3.org/2000/svg">
<g id="&#240;&#159;&#166;&#134; icon &#34;circle check&#34;">
<path id="Vector" d="M30.5713 6C24.2061 6 18.1016 8.52857 13.6007 13.0294C9.09985 17.5303 6.57129 23.6348 6.57129 30C6.57129 36.3652 9.09985 42.4697 13.6007 46.9706C18.1016 51.4714 24.2061 54 30.5713 54C36.9365 54 43.041 51.4714 47.5419 46.9706C52.0427 42.4697 54.5713 36.3652 54.5713 30C54.5713 23.6348 52.0427 17.5303 47.5419 13.0294C43.041 8.52857 36.9365 6 30.5713 6ZM0.571289 30C0.571289 13.431 14.0023 0 30.5713 0C47.1403 0 60.5713 13.431 60.5713 30C60.5713 46.569 47.1403 60 30.5713 60C14.0023 60 0.571289 46.569 0.571289 30ZM44.5633 20.259C45.1573 20.7875 45.5171 21.5303 45.5638 22.324C45.6105 23.1177 45.3402 23.8975 44.8123 24.492L28.8133 42.492C28.5318 42.8087 28.1865 43.0622 27.7999 43.2359C27.4134 43.4095 26.9945 43.4992 26.5708 43.4992C26.1471 43.4992 25.7282 43.4095 25.3416 43.2359C24.9551 43.0622 24.6098 42.8087 24.3283 42.492L16.3303 33.492C15.8326 32.8934 15.5872 32.1248 15.6457 31.3485C15.7043 30.5722 16.0623 29.8492 16.6442 29.332C17.226 28.8148 17.9861 28.544 18.7638 28.5769C19.5416 28.6097 20.2761 28.9436 20.8123 29.508L26.5723 35.985L40.3303 20.505C40.8593 19.9115 41.6022 19.5522 42.3959 19.506C43.1896 19.4599 43.9691 19.7307 44.5633 20.259Z" fill="#5CB276"/>
</g>
</svg>
