<svg width="29" height="20" viewBox="0 0 29 20" fill="none" xmlns="http://www.w3.org/2000/svg">
<g id="&#240;&#159;&#166;&#134; icon &#34;eye&#34;">
<path id="Vector" d="M18.5707 10C18.5707 11.1367 18.1192 12.2267 17.3154 13.0305C16.5117 13.8342 15.4216 14.2857 14.285 14.2857C13.1483 14.2857 12.0583 13.8342 11.2545 13.0305C10.4508 12.2267 9.99927 11.1367 9.99927 10C9.99927 8.86337 10.4508 7.77328 11.2545 6.96955C12.0583 6.16582 13.1483 5.71429 14.285 5.71429C15.4216 5.71429 16.5117 6.16582 17.3154 6.96955C18.1192 7.77328 18.5707 8.86337 18.5707 10Z" fill="#0D0D0D"/>
<path id="Vector_2" d="M28.4192 9.36143C25.3364 3.19429 19.8621 0 14.285 0C8.70924 0 3.23352 3.19429 0.150666 9.36143C0.051582 9.55972 0 9.77834 0 10C0 10.2217 0.051582 10.4403 0.150666 10.6386C3.23352 16.8057 8.70781 20 14.285 20C19.8607 20 25.3364 16.8057 28.4192 10.6386C28.5183 10.4403 28.5699 10.2217 28.5699 10C28.5699 9.77834 28.5183 9.55972 28.4192 9.36143ZM14.285 17.1429C10.0435 17.1429 5.71067 14.8286 3.04209 10C5.71067 5.17143 10.0421 2.85714 14.285 2.85714C18.5264 2.85714 22.8592 5.17143 25.5278 10C22.8592 14.8286 18.5264 17.1429 14.285 17.1429Z" fill="#0D0D0D"/>
</g>
</svg>
