<svg width="38" height="46" viewBox="0 0 38 46" fill="none" xmlns="http://www.w3.org/2000/svg">
<g id="&#240;&#159;&#166;&#134; icon &#34;Running&#34;">
<path id="Vector" d="M24.8532 8.50622C27.1895 8.50622 29.0835 6.60206 29.0835 4.25311C29.0835 1.90415 27.1895 0 24.8532 0C22.5169 0 20.623 1.90415 20.623 4.25311C20.623 6.60206 22.5169 8.50622 24.8532 8.50622ZM10.9013 28.1299L9.59702 31.1886H3.702C2.14474 31.1886 0.881836 32.4583 0.881836 34.024C0.881836 35.5897 2.14474 36.8594 3.702 36.8594H10.5277C12.2242 36.8594 13.7515 35.8457 14.4151 34.2818L15.1897 32.4636L14.2494 31.9054C12.723 30.999 11.6002 29.6575 10.9013 28.1299ZM34.7238 19.847H30.8434L28.5467 15.1287C27.4451 12.8648 25.4225 11.2096 23.1021 10.615L16.8378 8.74191C14.3437 8.13939 11.7465 8.69318 9.71335 10.2606L6.21723 12.9551C4.98076 13.9077 4.74634 15.6869 5.6955 16.93C6.64466 18.1732 8.41343 18.4062 9.64901 17.4546L13.1469 14.7601C13.8229 14.2382 14.6839 14.0512 15.3739 14.216L16.6695 14.6032L13.3681 22.3465C12.2559 24.9587 13.2526 28.0182 15.6859 29.4625L23.1752 33.9079L20.7543 41.6813C20.289 43.1753 21.1165 44.7657 22.6024 45.2336C22.8835 45.3222 23.1673 45.3647 23.4467 45.3647C24.6461 45.3647 25.7583 44.5876 26.1364 43.3755L28.9248 34.4209C29.4457 32.5806 28.6701 30.6038 27.0177 29.6016L21.6206 26.3994L24.3799 19.4633L26.1663 23.1342C26.8714 24.5821 28.3625 25.5169 29.9656 25.5169H34.7238C36.281 25.5169 37.5439 24.2471 37.5439 22.6815C37.5439 21.1158 36.281 19.847 34.7238 19.847Z" fill="black"/>
</g>
</svg>
